<svg xmlns="http://www.w3.org/2000/svg" xmlns:xlink="http://www.w3.org/1999/xlink" width="755.4" height="261.9" viewBox="0 0 755.4 261.9">
  <defs>
    <style>
      .cls-1, .cls-14 {
        fill: none;
      }

      .cls-2 {
        fill: #001215;
        stroke-miterlimit: 10;
      }

      .cls-14, .cls-15, .cls-2 {
        stroke: #000;
      }

      .cls-14, .cls-15, .cls-3 {
        opacity: 0.5;
      }

      .cls-4 {
        clip-path: url(#clip-path);
      }

      .cls-5 {
        font-size: 9.96px;
        font-family: ArialMT, Arial;
      }

      .cls-6 {
        letter-spacing: 0.02em;
      }

      .cls-7 {
        letter-spacing: 0em;
      }

      .cls-8 {
        letter-spacing: 0em;
      }

      .cls-9 {
        clip-path: url(#clip-path-2);
      }

      .cls-10 {
        letter-spacing: -0.03em;
      }

      .cls-11 {
        letter-spacing: 0em;
      }

      .cls-12 {
        letter-spacing: 0em;
      }

      .cls-13 {
        letter-spacing: 0em;
      }

      .cls-14, .cls-15 {
        stroke-linejoin: round;
        stroke-width: 2px;
      }

      .cls-15 {
        fill: #fff;
      }
    </style>
    <clipPath id="clip-path" transform="translate(-17.4 -68.38)">
      <rect class="cls-1" x="630.04" y="148.96" width="141.38" height="48.96"/>
    </clipPath>
    <clipPath id="clip-path-2" transform="translate(-17.4 -68.38)">
      <rect class="cls-1" x="115.76" y="184.35" width="98.3" height="12.48"/>
    </clipPath>
  </defs>
  <title>Classroom Map - 2019</title>
  <g id="_36" data-name="36">
    <rect class="cls-2" x="66.08" y="0.5" width="31.8" height="38.18"/>
  </g>
  <g id="Layer_16" data-name="Layer 16">
    <path class="cls-2" d="M-37.46-50.7" transform="translate(-17.4 -68.38)"/>
  </g>
  <g id="_70" data-name="70">
    <rect class="cls-2" x="610.94" y="1.51" width="33.92" height="38.07"/>
    <path class="cls-2" d="M17.9-72.76" transform="translate(-17.4 -68.38)"/>
  </g>
  <g id="Dun">
    <rect class="cls-2" x="713.8" y="2.53" width="41.11" height="36.99"/>
  </g>
  <g id="MusGrn">
    <rect class="cls-2" x="713.8" y="39.33" width="41.11" height="30.02"/>
  </g>
  <g id="_61" data-name="61">
    <rect class="cls-2" x="559.18" y="39.33" width="26.91" height="31.35"/>
  </g>
  <g id="_60" data-name="60">
    <rect class="cls-2" x="526.7" y="39.33" width="31.35" height="31.35"/>
  </g>
  <g id="_59" data-name="59">
    <rect class="cls-2" x="494.12" y="39.33" width="31.35" height="31.35"/>
  </g>
  <g id="_50" data-name="50">
    <rect class="cls-2" x="262.27" y="50.59" width="31.8" height="28.63"/>
  </g>
  <g id="_48" data-name="48">
    <rect class="cls-2" x="229.86" y="92.94" width="31.35" height="35.38"/>
  </g>
  <g id="_47" data-name="47">
    <rect class="cls-2" x="229.86" y="129.48" width="31.35" height="35.29"/>
  </g>
  <g id="_17" data-name="17">
    <rect class="cls-2" x="99.08" y="149.4" width="31.35" height="31.35"/>
  </g>
  <g id="_16" data-name="16">
    <rect class="cls-2" x="131.57" y="149.4" width="31.35" height="31.35"/>
  </g>
  <g id="_15" data-name="15">
    <rect class="cls-2" x="164.02" y="149.4" width="31.35" height="31.35"/>
  </g>
  <g id="_14" data-name="14">
    <rect class="cls-2" x="195.37" y="149.4" width="31.35" height="31.35"/>
  </g>
  <g id="_35" data-name="35">
    <rect class="cls-2" x="98.85" y="0.5" width="31.8" height="38.18"/>
  </g>
  <g id="_34" data-name="34">
    <rect class="cls-2" x="131.34" y="0.5" width="31.8" height="38.18"/>
  </g>
  <g id="_33" data-name="33">
    <rect class="cls-2" x="164.39" y="0.5" width="31.8" height="38.18"/>
  </g>
  <g id="_32" data-name="32">
    <rect class="cls-2" x="164.39" y="50.59" width="31.8" height="28.63"/>
  </g>
  <g id="_31" data-name="31">
    <rect class="cls-2" x="131.34" y="50.59" width="31.8" height="28.63"/>
  </g>
  <g id="_30" data-name="30">
    <rect class="cls-2" x="98.85" y="50.59" width="31.8" height="28.63"/>
  </g>
  <g id="_29" data-name="29">
    <rect class="cls-2" x="66.08" y="50.59" width="31.8" height="28.63"/>
  </g>
  <g id="_28" data-name="28">
    <rect class="cls-2" x="29.2" y="24.37" width="32.14" height="36.04"/>
  </g>
  <g id="Other">
    <polygon class="cls-2" points="0.5 93.04 0.56 169.57 33.26 170.47 33.26 150.55 65.54 150.19 65.12 93.1 0.5 93.04"/>
    <polygon class="cls-2" points="611 42.3 610.94 70.27 712.64 69.26 712.64 69.26 712.64 2.44 712.64 2.44 643.7 1.43 643.7 1.43 643.7 39.49 611.42 39.49 611 42.3"/>
    <rect class="cls-2" x="360.95" y="24.45" width="98.95" height="25.03"/>
    <rect class="cls-2" x="427.32" y="48.29" width="33.54" height="31.35"/>
    <rect class="cls-2" x="360.95" y="48.57" width="65.9" height="30.79"/>
    <rect class="cls-2" x="328.92" y="48.29" width="31.35" height="31.35"/>
    <rect class="cls-2" x="229.86" y="165.93" width="31.35" height="35.38"/>
    <rect class="cls-2" x="229.64" y="50.59" width="31.8" height="28.63"/>
    <rect class="cls-2" x="196.87" y="50.59" width="31.8" height="28.63"/>
    <g class="cls-3">
      <g class="cls-4">
        <text class="cls-5" transform="translate(660.18 108.06)"><tspan class="cls-6">T</tspan><tspan x="6.23" y="0">ut</tspan><tspan class="cls-7" x="14.54" y="0">u</tspan><tspan x="20.04" y="0"> </tspan><tspan class="cls-8" x="22.81" y="0">Q</tspan><tspan x="30.58" y="0">u</tspan><tspan class="cls-7" x="36.12" y="0">a</tspan><tspan x="41.62" y="0">d</tspan></text>
      </g>
    </g>
    <g class="cls-3">
      <g class="cls-9">
        <text class="cls-5" transform="translate(117.68 125.69)">C<tspan class="cls-7" x="7.19" y="0">l</tspan><tspan x="9.37" y="0">a</tspan><tspan class="cls-10" x="14.9" y="0">y</tspan><tspan x="19.58" y="0">to</tspan><tspan class="cls-11" x="27.88" y="0">n</tspan><tspan x="33.38" y="0"> </tspan><tspan class="cls-12" x="36.15" y="0">Q</tspan><tspan class="cls-13" x="43.93" y="0">u</tspan><tspan class="cls-11" x="49.47" y="0">a</tspan><tspan x="54.97" y="0">d</tspan></text>
      </g>
    </g>
    <path class="cls-14" d="M74,314.58c0-8.13,5.43-14.71,12.12-14.71H98.28v14.71c0,8.12-5.43,14.7-12.13,14.7S74,322.7,74,314.58Z" transform="translate(-17.4 -68.38)"/>
    <path class="cls-14" d="M346.79,86.58c0,16.34-9.48,29.59-21.18,29.59s-21.18-13.25-21.18-29.59H315c0,10.5,4.74,19,10.59,19s10.59-8.5,10.59-19Z" transform="translate(-17.4 -68.38)"/>
    <path class="cls-15" d="M21,178.08a12.6,12.6,0,0,1,12.6-12.6q6.49,0,13-.4-.41,6.49-.4,13a12.6,12.6,0,0,1-25.2,0Z" transform="translate(-17.4 -68.38)"/>
    <path class="cls-14" d="M346.79,215.69c0-9.64,8.89-17.45,19.86-17.45s19.87,7.81,19.87,17.45-8.89,17.46-19.87,17.46S346.79,225.34,346.79,215.69Z" transform="translate(-17.4 -68.38)"/>
    <rect class="cls-2" x="460.87" y="15.02" width="32.78" height="88.34"/>
  </g>
</svg>
