<?xml version="1.0" encoding="UTF-8"?>
<!-- Created with Inkscape (http://www.inkscape.org/) -->
<svg width="297mm" height="210mm" version="1.1" viewBox="0 0 297 210" xmlns="http://www.w3.org/2000/svg" xmlns:cc="http://creativecommons.org/ns#" xmlns:dc="http://purl.org/dc/elements/1.1/" xmlns:rdf="http://www.w3.org/1999/02/22-rdf-syntax-ns#">
	<metadata>
		<rdf:RDF>
			<cc:Work rdf:about="">
				<dc:format>image/svg+xml</dc:format>
				<dc:type rdf:resource="http://purl.org/dc/dcmitype/StillImage"/>
				<dc:title/>
			</cc:Work>
		</rdf:RDF>
	</metadata>
	<g transform="translate(0,-87)">
		<rect x="10.074" y="97.074" width="25.185" height="33.708" style="stroke-width:2"/>
		<rect x="79.428" y="104.44" width="54.244" height="60.443" style="stroke-width:2"/>
		<rect x="115.07" y="198.2" width="25.959" height="39.908" style="stroke-width:2"/>
		<rect x="192.18" y="150.15" width="5.4244" height="25.185" style="stroke-width:2"/>
		<rect x="59.668" y="179.6" width="30.609" height="34.871" style="stroke-width:2"/>
		<rect x="16.273" y="198.2" width="12.011" height="39.52" style="stroke-width:2"/>
		<rect x="187.53" y="251.28" width="42.232" height="15.886" style="stroke-width:2"/>
		<rect x="218.14" y="194.32" width="23.247" height="20.923" style="stroke-width:2"/>
		<rect x="163.12" y="198.59" width="5.4244" height="3.8745" style="stroke-width:2"/>
		<rect x="166.99" y="118" width="15.886" height="13.173" style="stroke-width:2"/>
		<rect x="225.89" y="113.73" width="25.185" height="27.897" style="stroke-width:2"/>
		<ellipse cx="94.732" cy="250.51" rx="16.467" ry="18.21" style="stroke-width:2"/>
		<rect x="16.273" y="148.22" width="30.609" height="21.697" style="stroke-width:2"/>
		<rect x="20.535" y="259.8" width="37.583" height="21.697" style="stroke-width:2"/>
		<rect x="137.93" y="273.75" width="19.76" height="12.786" style="stroke-width:2"/>
		<rect x="199.15" y="279.95" width="30.609" height="9.2989" style="stroke-width:2"/>
		<rect x="180.94" y="224.55" width="22.472" height="15.111" style="stroke-width:2"/>
		<rect x="151.88" y="149.77" width="17.823" height="15.498" style="stroke-width:2"/>
		<rect x="148.39" y="99.399" width="8.1365" height="11.236" style="stroke-width:2"/>
		<rect x="192.18" y="98.236" width="13.948" height="13.561" style="stroke-width:2"/>
		<rect x="233.63" y="94.749" width="15.498" height="10.461" style="stroke-width:2"/>
		<rect x="230.92" y="163.72" width="19.373" height="14.723" style="stroke-width:2"/>
		<rect x="236.73" y="231.52" width="18.21" height="10.461" style="stroke-width:2"/>
		<rect x="137.55" y="247.02" width="20.148" height="12.399" style="stroke-width:2"/>
	</g>
</svg>
